<svg width="58" height="20" viewBox="0 0 58 20" fill="currentColor" xmlns="http://www.w3.org/2000/svg">
<path d="M7.41953 13.48L0.759531 8.04L7.45953 2.6L8.61953 3.96L3.49953 8L8.61953 12.1L7.41953 13.48ZM12.5517 15V0.599999L14.8117 0.22V6.06C15.1717 5.67333 15.5851 5.37333 16.0517 5.16C16.5184 4.94667 17.0184 4.84 17.5517 4.84C18.4051 4.84 19.1717 5.07333 19.8517 5.54C20.5451 5.99333 21.0984 6.60667 21.5117 7.38C21.9251 8.15333 22.1317 9.02667 22.1317 10C22.1317 10.96 21.9251 11.8333 21.5117 12.62C21.1117 13.3933 20.5717 14.0067 19.8917 14.46C19.2117 14.9133 18.4451 15.14 17.5917 15.14C17.0184 15.14 16.4917 15.0333 16.0117 14.82C15.5317 14.5933 15.1117 14.2667 14.7517 13.84V15H12.5517ZM17.0517 13.28C17.6117 13.28 18.1051 13.14 18.5317 12.86C18.9584 12.58 19.2917 12.1933 19.5317 11.7C19.7717 11.1933 19.8917 10.6267 19.8917 10C19.8917 9.34667 19.7717 8.77333 19.5317 8.28C19.2917 7.78667 18.9584 7.4 18.5317 7.12C18.1051 6.84 17.6117 6.7 17.0517 6.7C16.6117 6.7 16.1984 6.79333 15.8117 6.98C15.4251 7.15333 15.0917 7.4 14.8117 7.72V12.28C15.0784 12.6 15.4051 12.8467 15.7917 13.02C16.1784 13.1933 16.5984 13.28 17.0517 13.28ZM29.2639 15.2C28.2906 15.2 27.4106 14.9733 26.6239 14.52C25.8372 14.0533 25.2106 13.4267 24.7439 12.64C24.2906 11.8533 24.0639 10.9733 24.0639 10C24.0639 9.01333 24.2772 8.13333 24.7039 7.36C25.1439 6.58667 25.7372 5.97333 26.4839 5.52C27.2439 5.05333 28.0906 4.82 29.0239 4.82C29.9972 4.82 30.8572 5.04667 31.6039 5.5C32.3639 5.95333 32.9572 6.56667 33.3839 7.34C33.8239 8.11333 34.0439 9 34.0439 10V10.54H26.2839C26.3506 11.0867 26.5239 11.5733 26.8039 12C27.0972 12.4133 27.4639 12.74 27.9039 12.98C28.3572 13.22 28.8506 13.34 29.3839 13.34C29.9039 13.34 30.3839 13.24 30.8239 13.04C31.2772 12.84 31.6506 12.56 31.9439 12.2L33.4439 13.54C32.8706 14.1133 32.2372 14.5333 31.5439 14.8C30.8506 15.0667 30.0906 15.2 29.2639 15.2ZM26.3039 9.12H31.8839C31.8039 8.62667 31.6306 8.2 31.3639 7.84C31.1106 7.46667 30.7839 7.18 30.3839 6.98C29.9972 6.76667 29.5572 6.66 29.0639 6.66C28.5972 6.66 28.1706 6.76 27.7839 6.96C27.4106 7.16 27.0972 7.44667 26.8439 7.82C26.5906 8.18 26.4106 8.61333 26.3039 9.12ZM35.2761 19.18L43.2961 0.999999H45.4761L37.4761 19.18H35.2761ZM50.5883 2.6L57.2483 8.04L50.5483 13.48L49.3883 12.12L54.5083 8.08L49.3883 3.98L50.5883 2.6Z" fill="currentColor"/>
</svg>
